<?xml version="1.0" encoding="utf-8"?>
<!-- Generator: Adobe Illustrator 25.4.1, SVG Export Plug-In . SVG Version: 6.00 Build 0)  -->
<svg version="1.1" id="Layer_1" xmlns="http://www.w3.org/2000/svg" xmlns:xlink="http://www.w3.org/1999/xlink" x="0px" y="0px"
	 viewBox="0 0 45 45" style="enable-background:new 0 0 45 45;" xml:space="preserve">
<style type="text/css">
	.st0{fill:#FFC300;}
</style>
<path class="st0" d="M44,22.1C44.3,34,33.9,44.7,20.8,44c-4.3-0.2-8.4-1.7-11.9-4.3c-3.5-2.6-6.1-6.1-7.6-10.1
	c-1.5-4-1.7-8.4-0.7-12.6S3.8,8.9,6.9,6c3.1-3,7.1-4.9,11.3-5.7c4.2-0.7,8.6-0.2,12.5,1.5c3.9,1.7,7.3,4.6,9.7,8.2
	C42.8,13.6,44,17.8,44,22.1z M30.4,21.9c-1.6,0-3.2,0-4.8,0c-0.6,0-0.7-0.1-0.5-0.7c2.1-5.3,4.1-10.6,6.1-15.9
	c0.2-0.5,0.8-1.3,0.4-1.6c-0.4-0.3-0.9,0.6-1.4,0.8c0,0-0.1,0.1-0.1,0.1l-10.8,8.7c-3.4,2.7-6.7,5.4-10.1,8.2
	c-0.2,0.1-0.4,0.2-0.3,0.5s0.4,0.2,0.7,0.2c3,0,6,0,9,0c0.7,0,0.9,0.2,0.6,0.9c-2.2,5.5-4.3,10.9-6.4,16.4c-0.1,0.3-0.6,0.8-0.2,1.1
	s0.8-0.3,1.1-0.5l21.9-17.2c0.2-0.1,0.5-0.2,0.4-0.5c-0.1-0.3-0.4-0.2-0.7-0.2H30.4z"/>
</svg>
