<svg xmlns="http://www.w3.org/2000/svg" viewBox="0 0 19.73 23.38"><defs><style>.cls-1{fill:#fff;}</style></defs><g id="Layer_2" data-name="Layer 2"><g id="Layer_1-2" data-name="Layer 1"><path class="cls-1" d="M5.89,13.76l2.56,9.58L0,13.76Z"/><path class="cls-1" d="M5.94,12.39H0l3.91-3.9a.66.66,0,0,1,.48-.2h3.9Z"/><path class="cls-1" d="M12.61,12.39H6.83l3-4.1Z"/><path class="cls-1" d="M12.42,13.8,9.86,23.38,7.31,13.8Z"/><path class="cls-1" d="M13.79,12.39l-2.35-4.1h3.9a.67.67,0,0,1,.48.2l3.91,3.9Z"/><path class="cls-1" d="M13.84,13.8h5.89l-8.45,9.58Z"/><path class="cls-1" d="M9.86,3.9a.68.68,0,0,1-.68-.68V.68a.69.69,0,0,1,1.37,0V3.22A.68.68,0,0,1,9.86,3.9Z"/><path class="cls-1" d="M3.06,5.32,1.8,3.12A.68.68,0,0,1,3,2.44L4.25,4.63A.7.7,0,0,1,4,5.57.7.7,0,0,1,3.06,5.32Z"/><path class="cls-1" d="M15.73,5.57a.7.7,0,0,1-.25-.94l1.27-2.19a.68.68,0,0,1,1.18.68l-1.26,2.2A.7.7,0,0,1,15.73,5.57Z"/></g></g></svg>