<svg xmlns="http://www.w3.org/2000/svg" viewBox="0 0 23.8 23.88"><defs><style>.cls-1{fill:#fff;}</style></defs><g id="Layer_2" data-name="Layer 2"><g id="Layer_1-2" data-name="Layer 1"><path class="cls-1" d="M17.17,8.63a8.19,8.19,0,1,1-1.92-1.92l1.66-1.66A10.51,10.51,0,1,0,18.83,7Z"/><path class="cls-1" d="M15.94,9.85l-1.23,1.23a4.67,4.67,0,0,1,.59,2.29,4.78,4.78,0,1,1-2.5-4.21L14,7.93a6.48,6.48,0,1,0,1.92,1.92Z"/><circle class="cls-1" cx="10.51" cy="13.37" r="2.77"/><polygon class="cls-1" points="23.8 2.44 21.95 1.88 21.49 0 18.1 3.21 18.47 4.72 10.16 13.03 10.85 13.71 19.26 5.3 20.41 5.65 23.8 2.44"/></g></g></svg>