<svg xmlns="http://www.w3.org/2000/svg" viewBox="0 0 22.88 13.26"><defs><style>.cls-1{fill:#fff;}</style></defs><g id="Layer_2" data-name="Layer 2"><g id="Layer_1-2" data-name="Layer 1"><path class="cls-1" d="M13.23,3.63a5.25,5.25,0,0,1,0,9.63,14.51,14.51,0,0,0,9.65-4.81A14.49,14.49,0,0,0,13.23,3.63Z"/><path class="cls-1" d="M5.91,8.45A5.25,5.25,0,0,1,9.06,3.64C2.61,4.39,0,8.45,0,8.45s2.61,4.05,9.06,4.8A5.24,5.24,0,0,1,5.91,8.45Z"/><path class="cls-1" d="M11.15,5a3.47,3.47,0,1,0,3.47,3.47A3.46,3.46,0,0,0,11.15,5Zm0,4.82A1.36,1.36,0,1,1,12.5,8.45,1.35,1.35,0,0,1,11.15,9.8ZM13,6.87a.5.5,0,1,1,.5-.5A.5.5,0,0,1,13,6.87Z"/><path class="cls-1" d="M4.84,3.27c.43-.14.87-.26,1.33-.37L4.06.79c-.46.11-.9.24-1.33.37Z"/><path class="cls-1" d="M11,0h-.42V2.35h.54l.66,0V0Z"/><path class="cls-1" d="M18.18.85,16.12,2.91c.46.11.91.23,1.33.37l2.07-2.07C19.09,1.08,18.64,1,18.18.85Z"/></g></g></svg>