<?xml version="1.0" encoding="utf-8"?>
<!-- Generator: Adobe Illustrator 26.0.0, SVG Export Plug-In . SVG Version: 6.00 Build 0)  -->
<svg version="1.1" id="Layer_1" xmlns="http://www.w3.org/2000/svg" xmlns:xlink="http://www.w3.org/1999/xlink" x="0px" y="0px"
	 viewBox="0 0 22.9 16.4" style="enable-background:new 0 0 22.9 16.4;" xml:space="preserve">
<style type="text/css">
	.st0{fill:#FFFFFF;}
</style>
<g id="Layer_2_00000141433164074779331310000017873928431872244141_">
	<g id="Layer_1-2">
		<path class="st0" d="M13.5,6.8c2.5,1.1,3.7,4,2.6,6.5c-0.5,1.2-1.4,2.1-2.6,2.6c3.5-0.3,6.8-1.9,9.1-4.5C20.3,8.8,17,7.1,13.5,6.8
			z"/>
		<path class="st0" d="M6.6,11.4c0-2,1.2-3.8,3-4.5C3.5,7.6,1,11.4,1,11.4s2.5,3.8,8.6,4.5C7.8,15.1,6.6,13.4,6.6,11.4z"/>
		<path class="st0" d="M11.5,8.1c-1.8,0-3.3,1.5-3.3,3.3c0,1.8,1.5,3.3,3.3,3.3c1.8,0,3.3-1.5,3.3-3.3C14.8,9.6,13.4,8.1,11.5,8.1
			C11.5,8.1,11.5,8.1,11.5,8.1z M11.5,12.7c-0.7,0-1.3-0.6-1.3-1.3c0-0.7,0.6-1.3,1.3-1.3c0.7,0,1.3,0.6,1.3,1.3
			C12.8,12.1,12.2,12.7,11.5,12.7C11.5,12.7,11.5,12.7,11.5,12.7L11.5,12.7z M13.3,9.9c-0.3,0-0.5-0.2-0.5-0.5C12.8,9.2,13,9,13.3,9
			c0.3,0,0.5,0.2,0.5,0.5C13.7,9.7,13.5,9.9,13.3,9.9z"/>
		<path class="st0" d="M5.6,6.5C6,6.4,6.4,6.3,6.8,6.2l-2-2C4.4,4.3,4,4.4,3.6,4.5L5.6,6.5z"/>
		<path class="st0" d="M11.4,3.4H11v2.2h0.5h0.6V3.4H11.4z"/>
		<path class="st0" d="M18.2,4.2l-1.9,1.9c0.4,0.1,0.9,0.2,1.3,0.3l2-2C19,4.4,18.6,4.4,18.2,4.2z"/>
	</g>
</g>
</svg>
