<?xml version="1.0" encoding="utf-8"?>
<!-- Generator: Adobe Illustrator 25.4.1, SVG Export Plug-In . SVG Version: 6.00 Build 0)  -->
<svg version="1.1" id="Layer_1" xmlns="http://www.w3.org/2000/svg" xmlns:xlink="http://www.w3.org/1999/xlink" x="0px" y="0px"
	 viewBox="0 0 45 46" style="enable-background:new 0 0 45 46;" xml:space="preserve">
<style type="text/css">
	.st0{fill:#FFC300;}
</style>
<path class="st0" d="M45,22.6C45.3,34.8,34.7,45.7,21.2,45c-4.4-0.2-8.6-1.8-12.2-4.4c-3.5-2.6-6.2-6.2-7.7-10.4
	c-1.5-4.1-1.8-8.6-0.8-12.9c1-4.3,3.3-8.2,6.5-11.2c3.2-3,7.2-5,11.6-5.8c4.3-0.8,8.8-0.2,12.8,1.5c4,1.8,7.5,4.7,9.9,8.3
	S45,18.2,45,22.6z M31.1,22.4c-1.6,0-3.3,0-4.9,0c-0.7,0-0.7-0.1-0.5-0.8c2.1-5.5,4.2-10.9,6.3-16.3c0.2-0.6,0.8-1.3,0.4-1.6
	s-0.9,0.6-1.4,0.8c-0.1,0-0.1,0.1-0.1,0.1l-11,8.9c-3.5,2.8-6.9,5.6-10.3,8.4c-0.2,0.1-0.5,0.2-0.3,0.5c0.1,0.3,0.4,0.2,0.7,0.2
	c3.1,0,6.1,0,9.2,0c0.7,0,0.9,0.2,0.6,0.9c-2.2,5.6-4.4,11.2-6.5,16.8c-0.1,0.4-0.6,0.9-0.3,1.1c0.3,0.3,0.8-0.3,1.1-0.5l22.4-17.6
	c0.2-0.2,0.6-0.2,0.4-0.6c-0.1-0.3-0.4-0.2-0.7-0.2H31.1z"/>
</svg>
