<svg id="Layer_1" data-name="Layer 1" xmlns="http://www.w3.org/2000/svg" viewBox="0 0 45.09 45.09"><defs><style>.cls-1{fill:#f6eb27;}.cls-2{fill:#262420;}</style></defs><circle class="cls-1" cx="22.55" cy="22.55" r="22.55"/><path class="cls-2" d="M53,30.38h3.29c.1,0,.21,0,.3,0a.7.7,0,0,1,.66.38c1.4,2.12,2.76,4.27,4.22,6.36,0,.07.08.2.18.17s0-.16,0-.24l.12-3.83c0-.33-.08-.43-.41-.45s-.76,0-1.14,0-.37-.08-.37-.37c0-.48,0-1,0-1.44,0-.31.07-.39.39-.38l5.95.1.64.06a.23.23,0,0,1,.23.25c0,.55,0,1.1,0,1.65,0,.18-.08.25-.28.27a11.42,11.42,0,0,1-1.17,0c-.27,0-.34,0-.34.32-.08,2.76-.14,5.53-.18,8.29v.23c0,.31-.11.39-.42.4H63.39c-1.15,0-2.3,0-3.46,0a.82.82,0,0,1-.77-.4c-1.54-2.29-3.12-4.56-4.65-6.86l0,0c0-.06-.08-.15-.14-.13s0,.11,0,.17c0,1.42,0,2.83-.08,4.24v.24c0,.28.07.36.35.36l1.08,0,.18,0a.23.23,0,0,1,.23.24c0,.56,0,1.11-.08,1.67,0,.2-.16.29-.4.29l-1.14,0H49.24a2.17,2.17,0,0,1-.36,0c-.2,0-.25-.08-.26-.28V41.3c0-.44,0-.88,0-1.32,0-.27.07-.34.34-.34h1.2c.36,0,.47-.08.47-.45,0-1.27.08-2.55.12-3.83l.09-2a2.81,2.81,0,0,0,0-.29.39.39,0,0,0-.42-.42H49.33c-.32,0-.42-.1-.42-.42l0-1.44c0-.37.09-.44.45-.44l3.07,0H53Z" transform="translate(-42.99 -17.89)"/><path class="cls-2" d="M77,49c-1.49,0-3.09-.07-4.7,0-.46,0-.53-.06-.53-.53s0-.84,0-1.26.07-.36.38-.37l1.43,0c.24,0,.31-.09.22-.32-.14-.41-.29-.82-.44-1.23a.34.34,0,0,0-.37-.26l-3.64,0a.37.37,0,0,0-.41.25c-.19.4-.39.79-.54,1.2l0,.1c0,.17,0,.23.17.23H70a.31.31,0,0,1,.34.35c0,.52,0,1,0,1.57,0,.22-.12.32-.37.32h-1.7c-.57,0-1.14,0-1.71,0-1.25,0-2.49,0-3.73,0-.24,0-.32-.08-.31-.32,0-.53,0-1.06.07-1.59,0-.27.11-.35.38-.35a2.75,2.75,0,0,0,1.14-.13,1.23,1.23,0,0,0,.67-.6c1.48-2.89,2.89-5.82,4.3-8.74l.24-.45a.55.55,0,0,1,.51-.25h2.3l3.25,0c.29,0,.32,0,.43.29,1.26,2.83,2.43,5.71,3.76,8.51a8.51,8.51,0,0,0,.65,1.23.72.72,0,0,0,.68.37c.35,0,.71,0,1.06,0s.41.08.43.41l.09,1.41a.32.32,0,0,1-.36.37l-1.75,0Zm-5.9-9-.07.12c-.34.83-.68,1.66-1,2.49-.06.12,0,.13.09.13h1.95c.12,0,.17,0,.11-.15-.25-.59-.48-1.19-.72-1.79C71.35,40.56,71.24,40.3,71.13,40Z" transform="translate(-42.99 -17.89)"/></svg>